<svg viewBox="0 0 64 64" fill="none" xmlns="http://www.w3.org/2000/svg">
  <!-- Background -->
  <rect width="64" height="64" fill="#2a2a2a"/>
  
  <!-- Blue curved D shape with stars -->
  <path d="M8 56 Q8 8 32 8 Q40 8 48 16 L40 24 Q32 16 24 16 Q16 16 16 32 Q16 48 24 48 Q32 48 40 40 L48 48 Q40 56 32 56 Q8 56 8 56 Z" fill="#1e40af"/>
  
  <!-- Stars on the D curve -->
  <circle cx="14" cy="16" r="1.5" fill="white"/>
  <circle cx="18" cy="12" r="1.5" fill="white"/>
  <circle cx="22" cy="10" r="1.5" fill="white"/>
  <circle cx="26" cy="10" r="1.5" fill="white"/>
  <circle cx="30" cy="12" r="1.5" fill="white"/>
  <circle cx="34" cy="16" r="1.5" fill="white"/>
  
  <circle cx="12" cy="22" r="1.5" fill="white"/>
  <circle cx="16" cy="20" r="1.5" fill="white"/>
  <circle cx="20" cy="18" r="1.5" fill="white"/>
  <circle cx="24" cy="17" r="1.5" fill="white"/>
  <circle cx="28" cy="17" r="1.5" fill="white"/>
  <circle cx="32" cy="18" r="1.5" fill="white"/>
  <circle cx="36" cy="20" r="1.5" fill="white"/>
  
  <circle cx="14" cy="28" r="1.5" fill="white"/>
  <circle cx="18" cy="26" r="1.5" fill="white"/>
  <circle cx="22" cy="25" r="1.5" fill="white"/>
  <circle cx="26" cy="24" r="1.5" fill="white"/>
  <circle cx="30" cy="24" r="1.5" fill="white"/>
  <circle cx="34" cy="25" r="1.5" fill="white"/>
  
  <!-- Red stripes forming V shape -->
  <path d="M40 12 L56 12 L56 16 L44 16 Z" fill="#dc2626"/>
  <path d="M42 20 L56 20 L56 24 L46 24 Z" fill="#dc2626"/>
  <path d="M44 28 L56 28 L56 32 L48 32 Z" fill="#dc2626"/>
  <path d="M46 36 L56 36 L56 40 L50 40 Z" fill="#dc2626"/>
  <path d="M48 44 L56 44 L56 48 L52 48 Z" fill="#dc2626"/>
  <path d="M50 52 L56 52 L56 56 L54 56 Z" fill="#dc2626"/>
</svg>