<svg viewBox="0 0 16 16" fill="none" xmlns="http://www.w3.org/2000/svg">
  <!-- Background -->
  <rect width="16" height="16" fill="#2a2a2a"/>
  
  <!-- Simplified D shape -->
  <path d="M2 14 Q2 2 8 2 Q10 2 12 4 L10 6 Q8 4 6 4 Q4 4 4 8 Q4 12 6 12 Q8 12 10 10 L12 12 Q10 14 8 14 Q2 14 2 14 Z" fill="#1e40af"/>
  
  <!-- Simplified stars -->
  <circle cx="3.5" cy="4" r="0.4" fill="white"/>
  <circle cx="4.5" cy="3" r="0.4" fill="white"/>
  <circle cx="5.5" cy="2.5" r="0.4" fill="white"/>
  <circle cx="6.5" cy="2.5" r="0.4" fill="white"/>
  <circle cx="7.5" cy="3" r="0.4" fill="white"/>
  <circle cx="8.5" cy="4" r="0.4" fill="white"/>
  
  <circle cx="3" cy="5.5" r="0.4" fill="white"/>
  <circle cx="4" cy="5" r="0.4" fill="white"/>
  <circle cx="5" cy="4.5" r="0.4" fill="white"/>
  <circle cx="6" cy="4.2" r="0.4" fill="white"/>
  <circle cx="7" cy="4.2" r="0.4" fill="white"/>
  <circle cx="8" cy="4.5" r="0.4" fill="white"/>
  <circle cx="9" cy="5" r="0.4" fill="white"/>
  
  <!-- Simplified V stripes -->
  <rect x="10" y="3" width="4" height="1" fill="#dc2626"/>
  <rect x="10.5" y="5" width="3.5" height="1" fill="#dc2626"/>
  <rect x="11" y="7" width="3" height="1" fill="#dc2626"/>
  <rect x="11.5" y="9" width="2.5" height="1" fill="#dc2626"/>
  <rect x="12" y="11" width="2" height="1" fill="#dc2626"/>
  <rect x="12.5" y="13" width="1.5" height="1" fill="#dc2626"/>
</svg>